<?xml version="1.0" ?><svg width="2050px" height="2050px" viewBox="0 0 2050 2050" data-name="Layer 2" id="Layer_2" xmlns="http://www.w3.org/2000/svg"><defs><style>.cls-1{fill:#c8c2e9;}.cls-2{fill:#4d4c78;}.cls-3{fill:#fff;}.cls-4{fill:#8a87b2;}.cls-5{fill:#323150;}.cls-6{fill:#64639c;}.cls-7{fill:#dfdafd;}</style></defs><title/><rect class="cls-1" height="1528.11" rx="172.5" ry="172.5" width="1832.6" x="108.7" y="260.9"/><path class="cls-2" d="M1941.3,497.2V433.5c0-95.3-77.2-172.6-172.5-172.6H281.2c-95.3,0-172.5,77.3-172.5,172.6v63.7Z"/><circle class="cls-3" cx="257.1" cy="380.9" r="35"/><circle class="cls-3" cx="381.9" cy="380.9" r="35"/><circle class="cls-3" cx="506.7" cy="380.9" r="35"/><path class="cls-4" d="M1854.9,1703.7H367.3c-95.3,0-172.6-77.3-172.6-172.5V348.1a171.6,171.6,0,0,1,15.8-72A172.5,172.5,0,0,0,108.7,433.5v1183c0,95.3,77.2,172.6,172.5,172.6H1768.8a172.5,172.5,0,0,0,156.8-100.6A170.5,170.5,0,0,1,1854.9,1703.7Z"/><path class="cls-5" d="M194.7,348.1a171.6,171.6,0,0,1,15.8-72A172.5,172.5,0,0,0,108.7,433.5v63.7h86Z"/><rect class="cls-6" height="154.97" rx="77.5" ry="77.5" width="466.3" x="1337.5" y="260.9"/><rect class="cls-7" height="646.26" rx="97.3" ry="97.3" width="194.7" x="1746.7" y="664.7"/><path class="cls-2" d="M984,708.3,383.6,944.4c-14.1,5.5-14.1,25.4,0,30.9l635.3,249.8a16.1,16.1,0,0,0,12.2,0l635.3-249.8c14.1-5.5,14.1-25.4,0-30.9L1066,708.3A111.7,111.7,0,0,0,984,708.3Z"/><polygon class="cls-5" points="807.5 930.4 608.4 1063.7 804.3 1140.7 807.5 930.4"/><polygon class="cls-5" points="1242.5 930.4 1441.6 1063.7 1245.7 1140.7 1242.5 930.4"/><path class="cls-2" d="M1323.1,1388.4H726.9l55.2-430.2a32.7,32.7,0,0,1,25.4-27.8q237.8-52.9,436.2-.7a32.7,32.7,0,0,1,24.1,27.5Z"/><path class="cls-5" d="M876.1,1025.8A32.7,32.7,0,0,1,901.5,998q198.4-44.2,369.6-15.1l-3.3-25.7a32.7,32.7,0,0,0-24.1-27.5q-198.5-52.2-436.2.7a32.7,32.7,0,0,0-25.4,27.8l-55.2,430.2H829.5Z"/><ellipse class="cls-5" cx="1025" cy="1388.4" rx="298.1" ry="36.7"/><path class="cls-5" d="M1469.3,1320a14.8,14.8,0,0,1-14.9-14.8V883.1a14.9,14.9,0,1,1,29.7,0v422.1A14.8,14.8,0,0,1,1469.3,1320Z"/><path class="cls-2" d="M1467.1,1466a51.4,51.4,0,0,1-51.4-51.4v-82.7a51.5,51.5,0,1,1,102.9,0v82.7A51.5,51.5,0,0,1,1467.1,1466Z"/><path class="cls-5" d="M1441.6,1442.8v-82.7a51.6,51.6,0,0,1,73.7-46.4,51.5,51.5,0,0,0-99.6,18.2v82.7A51.4,51.4,0,0,0,1445,1461,50.3,50.3,0,0,1,1441.6,1442.8Z"/><rect class="cls-6" height="282.25" rx="44.8" ry="44.8" transform="translate(-155.4 190.1) rotate(-8.2)" width="89.7" x="1202.4" y="1037.2"/><rect class="cls-6" height="282.25" rx="44.8" ry="44.8" transform="translate(37.5 1705.6) rotate(-70.1)" width="89.7" x="1190.7" y="684.9"/><rect class="cls-6" height="84.82" rx="21.1" ry="21.1" width="42.3" x="1475.3" y="1340.3"/></svg>